<svg width="1369" height="1369" viewBox="0 0 1369 1369" fill="none" xmlns="http://www.w3.org/2000/svg">
<path d="M1091.24 765.152C1091.24 765.152 1089.89 756.852 1089.1 756.927L938.485 771.458C926.501 772.616 917.194 782.173 916.353 794.182L912.215 853.487L795.695 861.8L787.77 808.052C786.005 796.097 775.565 787.085 763.481 787.085H604.519C592.439 787.085 581.999 796.097 580.234 808.052L572.305 861.8L455.785 853.487L451.647 794.182C450.806 782.169 441.499 772.611 429.515 771.454L278.828 756.927C278.05 756.852 277.479 765.16 276.701 765.16L276.497 797.754L404.114 818.334L408.294 878.167C409.139 890.28 418.912 900.075 431.034 900.945L591.507 912.392C592.115 912.434 592.714 912.458 593.313 912.458C605.372 912.458 615.796 903.442 617.561 891.487L625.715 836.183H742.289L750.444 891.487C752.204 903.438 762.64 912.454 774.716 912.454C775.307 912.454 775.898 912.434 776.477 912.392L936.97 900.945C949.088 900.075 958.866 890.28 959.711 878.167L963.886 818.334L1091.45 797.662L1091.24 765.152Z" fill="white"/>
<path d="M276.699 519.387V717.17V742.291V765.152C277.148 765.156 277.598 765.173 278.043 765.214L428.713 779.742C436.606 780.504 442.791 786.856 443.341 794.765L447.986 861.275L579.416 870.653L588.47 809.267C589.644 801.308 596.471 795.41 604.521 795.41H763.483C771.529 795.41 778.356 801.308 779.53 809.267L788.584 870.653L920.018 861.275L924.659 794.765C925.213 786.856 931.394 780.508 939.287 779.742L1089.9 765.214C1090.34 765.173 1090.79 765.156 1091.24 765.152V745.542L1091.3 745.521V519.387H1091.86C1111.82 493.912 1130.29 467.067 1148 438.429C1124.48 398.384 1095.66 362.598 1064.85 329.443C1036.28 343.825 1008.52 360.117 982.311 377.455C969.195 364.417 954.422 353.753 939.911 342.605C925.654 331.154 909.586 322.758 894.347 312.976C898.884 279.188 901.128 245.924 902.031 211.208C862.711 191.419 820.781 178.299 778.368 168.875C761.435 197.334 745.95 228.154 732.463 258.283C716.47 255.611 700.403 254.62 684.314 254.429V254.404C684.202 254.404 684.098 254.429 684.002 254.429C683.902 254.429 683.798 254.404 683.698 254.404V254.429C667.581 254.62 651.525 255.611 635.529 258.283C622.05 228.154 606.573 197.334 589.615 168.875C547.223 178.299 505.289 191.419 465.973 211.208C466.872 245.924 469.116 279.188 473.665 312.976C458.397 322.758 442.35 331.154 428.089 342.605C413.599 353.753 398.801 364.417 385.68 377.455C359.468 360.117 331.724 343.825 303.144 329.443C272.337 362.598 243.531 398.384 220 438.429C237.704 467.067 256.186 493.912 276.141 519.387H276.699Z" fill="#478CBF"/>
<path d="M956.071 810.723L951.405 877.587C950.843 885.646 944.433 892.061 936.374 892.639L775.884 904.09C775.493 904.12 775.102 904.132 774.715 904.132C766.739 904.132 759.858 898.279 758.68 890.271L749.477 827.856H618.525L609.322 890.271C608.085 898.671 600.576 904.711 592.118 904.09L431.628 892.639C423.569 892.061 417.159 885.646 416.597 877.587L411.931 810.723L276.45 797.661C276.513 812.222 276.7 828.173 276.7 831.349C276.7 974.434 458.211 1043.21 683.724 1044H683.999H684.278C909.791 1043.21 1091.24 974.434 1091.24 831.349C1091.24 828.115 1091.44 812.23 1091.5 797.661L956.071 810.723Z" fill="#478CBF"/>
<path d="M561.215 619.151C561.215 669.319 520.567 709.959 470.416 709.959C420.29 709.959 379.629 669.319 379.629 619.151C379.629 569.017 420.29 528.398 470.416 528.398C520.567 528.398 561.215 569.017 561.215 619.151Z" fill="white"/>
<path d="M539.367 624.537C539.367 657.813 512.398 684.782 479.097 684.782C445.812 684.782 418.826 657.813 418.826 624.537C418.826 591.261 445.812 564.267 479.097 564.267C512.398 564.267 539.367 591.261 539.367 624.537Z" fill="#414042"/>
<path d="M683.993 718.22C667.851 718.22 654.768 706.323 654.768 691.658V608.069C654.768 593.416 667.851 581.507 683.993 581.507C700.136 581.507 713.248 593.416 713.248 608.069V691.658C713.248 706.323 700.136 718.22 683.993 718.22Z" fill="white"/>
<path d="M806.787 619.151C806.787 669.319 847.435 709.959 897.594 709.959C947.716 709.959 988.373 669.319 988.373 619.151C988.373 569.017 947.716 528.398 897.594 528.398C847.435 528.398 806.787 569.017 806.787 619.151Z" fill="white"/>
<path d="M828.641 624.537C828.641 657.813 855.602 684.782 888.878 684.782C922.187 684.782 949.148 657.813 949.148 624.537C949.148 591.261 922.187 564.267 888.878 564.267C855.602 564.267 828.641 591.261 828.641 624.537Z" fill="#414042"/>
<g clip-path="url(#clip0_8_45)">
<path d="M1364.45 716.051C1361.78 713.645 1358.04 711.238 1355.9 710.703C1353.76 710.169 1344.94 705.891 1336.11 701.345C1327.56 696.532 1319.27 692.521 1318.2 692.521C1316.86 692.521 1310.44 690.115 1303.76 687.174C1296.81 684.233 1291.19 682.093 1290.66 682.093C1290.39 682.093 1279.96 677.281 1267.66 671.398C1255.09 665.248 1243.6 660.435 1241.99 660.435C1232.63 660.435 1221.94 632.093 1221.94 607.226C1221.94 594.659 1222.47 593.857 1241.99 575.943C1252.96 565.782 1264.45 556.424 1267.39 555.087C1270.34 553.75 1272.74 551.343 1272.74 549.472C1272.74 547.867 1275.68 544.926 1279.16 543.322C1282.9 541.718 1290.39 536.102 1296 531.022C1301.62 525.675 1310.98 517.653 1316.59 513.375C1338.79 496.262 1344.13 482.091 1334.51 466.316C1331.83 461.77 1328.63 455.353 1327.56 451.61C1326.49 448.134 1322.21 437.973 1318.2 429.149C1314.19 420.326 1308.57 407.759 1305.9 401.609C1302.96 395.192 1296.54 381.288 1291.46 370.86L1282.1 351.608L1263.38 352.41C1247.34 352.945 1188.78 360.967 1147.07 368.453C1129.42 371.395 1124.88 369.523 1109.64 351.608C1092.26 331.02 1092.26 331.02 1088.25 323.801C1085.04 317.651 1086.64 300.806 1090.92 295.458C1091.99 294.121 1094.13 286.634 1095.73 279.415C1097.34 271.928 1100.01 262.302 1101.88 258.024C1103.76 253.479 1105.36 248.399 1105.9 246.26C1106.16 244.12 1110.44 230.484 1114.99 215.778C1119.8 201.339 1123.81 186.901 1124.34 183.692C1124.61 180.483 1125.95 175.938 1126.75 173.531C1129.16 167.916 1106.43 144.387 1098.94 144.387C1097.61 144.387 1094.13 142.248 1091.46 139.574C1086.11 134.226 1062.04 117.648 1059.64 117.648C1058.84 117.648 1053.22 113.638 1047.07 108.825C1040.92 103.744 1034.24 98.9316 1032.1 98.1294C1029.96 97.0599 1024.61 93.8513 1020.07 91.1775C1010.71 85.0277 1001.88 84.2255 996.803 89.0384C994.931 90.9101 988.514 96.2578 982.364 100.803C976.482 105.616 966.856 113.905 960.974 119.52C955.091 125.135 941.722 137.435 930.76 147.061C919.797 156.686 909.102 166.312 906.695 168.719C893.326 182.355 875.946 182.622 842.256 170.59C822.737 163.638 816.32 159.895 813.913 154.815C808.833 144.119 799.475 113.103 799.475 107.22C799.475 104.279 798.405 101.338 797.068 100.536C795.731 99.4664 793.86 92.5144 792.79 84.7603C791.72 77.2736 789.849 69.7869 788.779 68.1826C787.71 66.8457 785.838 60.1611 784.769 53.4765C783.699 46.7919 781.56 39.0378 779.688 36.0966C778.084 33.1554 775.677 26.4709 774.073 21.3906C769.528 6.41715 763.378 5.08023 702.415 3.74332C631.826 2.67379 626.21 3.20855 621.13 15.2408C618.991 20.3211 616.05 31.2837 614.713 39.5726C613.109 48.1289 610.702 56.1503 609.365 57.7546C608.028 59.3589 606.424 64.974 605.889 70.3216C605.087 75.9367 602.948 84.2255 600.809 89.0384C598.67 93.5839 594.927 106.686 592.253 117.648C584.499 150.536 582.36 154.28 568.991 157.756C562.573 159.36 555.354 161.767 552.68 163.371C546.263 166.847 525.942 171.392 509.364 172.997L495.995 174.066L471.931 153.21C442.251 127.274 428.347 114.975 409.363 97.3273C401.074 89.8406 391.448 82.0865 387.972 80.2148C381.02 76.7388 365.78 78.6105 360.432 83.6908C358.56 85.5625 351.608 89.8406 344.924 93.3166C338.239 96.7925 328.613 103.21 323.266 107.488C317.918 111.499 312.036 114.975 310.699 114.975C309.094 114.975 304.549 117.648 300.271 121.124C296.26 124.6 287.971 130.215 281.821 133.424C267.115 141.713 261.233 151.873 263.639 164.975C264.709 170.59 267.115 177.542 268.987 180.483C270.859 183.425 273.265 191.446 274.067 198.665C275.137 205.617 277.009 211.232 278.078 211.232C279.148 211.232 280.752 216.313 281.821 222.73C282.891 228.88 285.832 240.11 288.773 247.329C301.608 281.554 304.549 298.667 298.934 304.282C297.062 306.153 296.26 307.49 297.062 307.49C298.667 307.49 273.265 335.833 255.885 353.48C245.725 363.908 241.981 366.047 236.634 364.71C233.158 363.908 225.671 362.838 220.056 362.571C214.441 362.036 205.083 360.432 199.2 358.828C193.318 357.223 186.098 355.886 183.157 356.154C180.216 356.154 167.114 354.282 153.745 351.876C124.6 346.528 93.3165 344.122 89.5732 346.795C88.2362 347.865 84.7603 353.213 82.0864 358.293C79.1452 363.373 75.4019 370.593 73.5302 374.336C66.5782 387.705 55.0808 413.106 56.1503 413.106C56.6851 413.106 53.4765 420.326 48.931 429.149C44.3855 437.973 38.7704 451.075 36.364 458.027L32.3532 470.861L44.9202 483.161C57.7546 495.728 90.1079 523.535 117.381 545.728C139.306 563.643 150.002 576.477 148.397 583.697C147.863 586.905 146.526 596.264 145.724 604.285C144.387 620.061 140.643 643.858 137.702 655.623C136.365 660.703 132.622 664.179 122.996 668.19C115.777 671.398 109.092 674.874 108.29 676.478C107.488 677.815 99.4663 681.024 90.9101 683.43C82.0864 685.837 74.8671 689.045 74.8671 690.115C74.8671 691.452 72.9954 692.521 70.8564 692.521C68.7173 692.521 64.7065 693.591 62.0327 695.195C59.6263 696.532 50.2679 700.81 41.4442 704.554C32.6206 708.564 22.9948 712.842 20.0536 714.447C17.1124 716.318 11.23 719.26 6.95186 721.399L-0.802246 725.409L0.802051 761.774C2.40635 796.266 6.68447 828.352 13.369 852.684C15.7755 861.507 18.1819 864.449 26.2034 867.925C31.5511 870.064 40.9095 872.47 46.7919 873.005C52.6743 873.54 70.0542 875.679 85.5624 877.818C124.066 883.7 145.189 886.107 147.863 885.572C152.141 884.235 169.788 891.454 175.67 896.802C178.879 899.476 183.157 906.16 184.761 911.508C186.633 916.856 189.842 924.075 192.516 927.818C194.922 931.562 199.2 941.187 202.409 949.476C207.222 963.113 207.222 965.252 203.746 972.204C201.607 976.482 198.131 981.295 196.259 983.434C194.12 985.306 192.516 988.514 192.516 990.653C192.516 992.525 187.703 1000.28 181.82 1007.77C175.938 1015.25 171.125 1021.94 171.125 1022.47C171.125 1023.27 167.114 1029.42 162.301 1036.11C157.756 1043.06 152.408 1050.55 151.071 1052.95C149.467 1055.63 143.852 1064.45 138.237 1073.01C126.739 1090.65 125.937 1097.34 134.493 1108.84C144.921 1123.01 209.895 1192.79 219.521 1200.01C222.73 1202.42 226.473 1202.15 237.436 1198.14C258.024 1190.66 267.383 1186.11 267.383 1183.97C267.383 1182.63 268.72 1181.83 270.591 1181.83C272.196 1181.83 279.682 1178.89 287.169 1175.41C328.079 1156.16 342.25 1149.75 343.854 1149.75C344.924 1149.75 347.865 1147.87 350.271 1145.74C352.678 1143.6 358.026 1141.46 362.036 1141.19C367.919 1140.65 375.94 1131.56 411.235 1084.24C434.497 1053.49 454.283 1026.75 455.353 1024.88C456.69 1023.01 455.085 1019.26 451.877 1016.05C448.936 1013.11 446.529 1011.51 446.529 1012.31C446.529 1019.53 379.951 953.487 362.304 929.155C356.421 920.866 349.737 912.043 347.598 909.369C345.459 906.695 338.774 894.93 332.892 883.433C327.009 871.668 321.661 861.775 320.592 860.973C319.79 860.17 317.116 853.753 314.442 846.267C311.501 839.047 308.56 831.56 307.223 830.224C305.351 827.55 298.667 803.485 294.121 780.758C292.517 774.073 290.378 766.319 289.041 763.378C286.1 757.228 279.95 687.709 282.089 684.5C283.158 682.628 286.1 650.275 286.634 635.034C286.634 632.093 289.843 617.654 293.319 602.948C297.062 588.242 300.271 574.338 300.806 572.199C301.073 570.06 304.014 562.306 307.223 555.354C310.164 548.135 312.838 541.183 312.838 539.846C312.838 536.905 330.218 502.68 342.785 480.754C354.55 460.701 379.149 428.882 392.785 416.315C398.668 410.7 403.748 405.352 403.748 404.283C403.748 402.946 408.561 398.668 414.443 394.122C420.326 389.844 430.219 382.09 436.101 376.475C441.984 371.127 450.273 365.245 454.818 363.641C459.096 361.769 462.572 359.095 462.572 357.758C462.572 356.421 470.326 351.608 479.952 347.33C489.578 343.052 497.332 338.507 497.332 337.437C497.332 336.368 503.749 333.159 511.503 330.218C518.99 327.544 527.011 324.068 529.151 322.464C531.29 320.859 538.509 317.918 545.193 316.046C568.723 309.362 594.927 302.143 597.066 302.143C598.135 302.143 598.937 387.972 598.937 492.786V683.163L640.917 769.528C664.179 816.854 683.698 855.625 684.5 855.625C685.302 855.625 704.821 816.854 728.083 769.528L770.062 683.163V493.589V304.282L780.223 305.618C785.571 306.153 800.544 310.431 813.111 314.977C836.641 323.266 838.512 324.068 856.962 333.961C862.844 337.17 873.005 342.25 879.689 345.459C886.374 348.667 894.128 353.48 896.802 356.154C899.743 358.828 903.486 360.967 905.358 360.967C907.23 360.967 909.102 362.036 909.636 363.106C910.171 364.443 917.123 370.058 925.144 376.208C948.674 393.32 991.99 438.24 1002.95 456.957C1006.16 462.305 1010.97 468.989 1013.65 471.931C1020.87 480.219 1052.69 543.322 1054.83 553.75C1055.89 558.83 1058.3 566.584 1060.17 570.862C1069 592.52 1073.27 617.387 1077.29 676.211C1078.89 699.741 1078.89 714.447 1077.02 719.527C1075.68 723.805 1074.88 728.885 1075.68 731.025C1076.48 732.896 1075.95 739.581 1074.61 745.731C1073.27 751.88 1071.67 762.576 1070.87 769.26C1070.07 775.945 1068.46 782.897 1067.12 784.501C1066.06 786.105 1064.18 793.057 1063.11 799.742C1062.04 806.694 1059.64 814.448 1057.5 817.122C1055.36 820.063 1053.49 824.341 1053.49 827.015C1053.49 829.421 1050.28 837.978 1046.54 845.732C1042.79 853.218 1039.32 861.775 1038.78 864.449C1036.91 872.47 999.477 930.492 986.91 944.931C968.995 964.984 927.551 1004.29 917.39 1010.44C914.717 1012.31 928.353 1029.42 970.065 1076.75C1013.92 1126.48 1029.16 1141.72 1038.51 1146.54C1045.47 1149.75 1051.35 1152.42 1052.15 1152.42C1052.95 1152.42 1067.66 1159.64 1084.77 1168.46C1102.15 1177.29 1118.19 1184.51 1120.33 1184.51C1122.74 1184.51 1125.68 1185.58 1127.02 1186.91C1128.62 1188.52 1134.24 1191.46 1139.59 1193.6L1149.21 1197.87L1161.24 1186.38C1178.36 1170.33 1243.33 1093.6 1246.27 1086.11C1247.61 1082.63 1248.68 1078.35 1248.68 1076.48C1248.68 1072.74 1216.59 1020.87 1210.44 1014.99C1208.57 1013.11 1204.83 1006.43 1202.15 1000.28C1199.21 994.397 1196 989.316 1194.93 989.316C1193.6 989.316 1190.12 984.236 1186.91 978.086C1183.7 971.669 1178.89 963.915 1175.68 960.706C1169.8 954.022 1168.73 941.99 1173.01 932.364C1174.61 929.155 1177.29 922.471 1179.16 917.925C1186.38 898.941 1191.99 895.465 1224.88 889.85C1241.73 887.176 1270.34 883.165 1288.79 881.026C1329.16 876.748 1344.94 873.54 1347.88 868.727C1350.02 864.983 1355.9 836.373 1357.24 820.865C1357.77 815.785 1358.84 809.902 1359.91 807.496C1362.32 801.346 1366.33 771.399 1367.93 744.661C1369.27 723.538 1369 720.062 1364.45 716.051ZM1316.59 797.068C1314.45 805.357 1312.85 816.587 1312.85 821.935C1312.85 833.967 1309.11 835.839 1280.76 838.245C1268.2 839.315 1247.88 841.988 1235.31 844.127C1222.74 846.267 1204.83 849.208 1195.47 850.545C1186.11 851.882 1176.75 854.021 1174.88 855.09C1164.99 860.705 1144.93 883.433 1140.66 893.593C1137.98 900.01 1134.77 906.962 1133.7 909.369C1132.37 911.775 1129.96 921.134 1128.09 930.225C1123.54 951.348 1127.29 970.332 1139.32 988.247C1144.13 995.466 1151.35 1006.16 1155.36 1012.04C1159.1 1017.93 1164.18 1026.48 1166.59 1030.76C1168.73 1035.31 1173.01 1041.19 1175.68 1044.13C1178.36 1047.07 1184.51 1055.63 1189.05 1063.11L1197.34 1076.75L1170.6 1108.57C1155.9 1125.95 1142.79 1141.46 1141.72 1142.79C1140.12 1144.13 1125.41 1138.52 1105.09 1128.36C1086.38 1119.26 1066.86 1109.64 1062.04 1107.23C1056.96 1104.83 1036.64 1084.5 1015.79 1060.97L978.354 1018.73L995.199 1001.88C1017.93 978.888 1024.08 971.936 1036.11 954.557C1041.72 946.535 1049.74 935.038 1054.02 929.423C1058.03 923.808 1061.51 917.925 1061.51 916.588C1061.51 915.251 1065.79 908.299 1070.87 900.813C1075.95 893.326 1080.23 885.304 1080.23 883.165C1080.23 881.294 1082.63 874.876 1085.57 869.261C1096.54 847.336 1111.51 795.731 1117.39 759.367C1122.47 727.549 1123.81 682.628 1120.33 655.088C1118.73 641.184 1116.32 619.793 1114.99 607.494C1113.65 595.194 1111.51 583.964 1110.17 582.092C1108.84 580.221 1106.7 573.269 1105.9 566.317C1104.83 559.365 1102.95 552.948 1101.62 552.145C1100.55 551.343 1098.14 544.659 1096.27 537.439C1090.12 511.503 1044.93 431.288 1023.81 408.561C974.61 355.619 939.048 326.207 897.069 303.479C862.042 284.763 860.438 283.96 842.523 278.078C834.234 275.404 820.33 270.591 811.507 267.383C788.512 258.827 758.298 258.559 747.068 266.581C742.522 270.057 736.372 275.939 733.698 279.95C728.885 287.169 728.618 297.062 727.281 481.289L725.944 675.142L705.891 714.714C694.928 736.372 685.302 754.019 684.5 754.019C683.698 754.019 674.072 736.372 663.109 714.714L643.056 675.142L641.719 479.952C640.382 291.982 640.114 284.495 635.302 277.811C617.654 254.816 590.916 254.014 529.953 274.335C518.723 278.078 508.295 282.089 506.69 283.158C505.353 284.228 498.134 287.436 490.647 290.11C483.428 292.784 475.407 296.26 473.268 298.132C471.128 300.003 463.909 304.282 457.225 307.49C435.032 318.72 386.101 357.223 361.501 383.16C346.528 398.668 307.49 447.331 307.49 450.273C307.49 451.075 303.747 458.027 298.934 465.781C288.773 482.893 277.009 506.958 274.067 516.049C272.998 519.792 269.254 528.883 265.778 536.102C258.024 552.948 244.388 612.307 242.249 639.045C241.179 650.008 239.842 666.853 239.04 676.478C237.436 695.73 244.12 778.351 247.596 783.966C248.933 785.838 251.34 793.592 253.211 800.811C259.896 830.491 262.57 839.047 270.057 856.962C276.741 873.005 287.169 894.395 301.875 922.203C304.014 925.947 311.234 936.375 317.918 945.198C324.603 954.022 332.892 965.252 336.1 970.065C339.576 974.878 354.282 990.653 368.988 1005.09L395.726 1031.3L370.058 1065.25C356.154 1083.97 342.517 1099.75 340.111 1100.55C337.704 1101.35 333.694 1103.22 331.555 1104.56C329.416 1105.9 323.266 1108.84 318.185 1111.24C313.105 1113.38 304.014 1117.39 298.132 1120.07C259.896 1138.25 251.875 1141.72 250.27 1141.72C248.933 1141.72 244.923 1144.13 240.912 1146.8L233.692 1152.15L218.719 1135.57C185.029 1097.87 180.483 1092.53 181.285 1090.39C181.553 1089.05 191.713 1073.54 204.013 1056.16C225.404 1024.88 231.019 1015.79 243.853 993.327C251.34 979.691 252.142 949.744 245.19 937.177C242.784 932.899 240.644 927.551 240.644 925.412C240.644 923.273 237.703 916.588 234.227 910.706C230.751 904.556 226.473 895.198 224.601 889.583C220.858 877.55 197.863 853.753 187.703 851.347C183.692 850.277 179.146 848.406 177.542 847.069C175.67 845.732 158.825 843.058 140.109 840.651C95.4556 835.571 55.3481 829.154 52.9417 826.748C51.8722 825.678 49.1983 811.774 47.0593 795.464C44.6528 779.421 41.979 763.378 41.1769 760.169C39.8399 755.624 40.9095 753.752 44.3855 752.415C47.3267 751.346 54.2786 748.672 60.161 745.998C66.0435 743.324 75.6692 739.046 81.5517 736.64C87.4341 733.966 97.0599 729.688 103.21 727.014C109.092 724.073 115.777 721.934 118.183 721.934C120.322 721.934 125.135 719.794 128.611 716.853C132.087 714.179 140.376 709.634 147.06 706.693C166.045 698.404 175.403 686.906 180.216 666.051C190.376 623.002 194.387 578.884 190.109 562.039C186.633 549.472 167.916 529.151 131.285 498.669C118.985 488.508 103.21 475.139 96.5251 469.257L84.2255 458.561L90.1079 446.529C93.5839 439.845 100.536 424.871 105.884 413.106C111.231 401.342 116.044 391.448 116.311 390.914C117.114 389.844 169.788 398.935 191.179 403.748C210.965 408.026 247.329 409.63 258.024 406.689C269.522 403.748 287.169 387.705 318.185 353.213C350.806 316.849 352.143 296.527 327.811 221.928C310.699 169.253 310.431 169.788 332.892 154.547C343.319 147.595 356.689 138.772 363.106 135.296L374.871 128.611L389.844 141.178C398.133 148.13 410.433 158.825 417.117 164.975C445.46 191.179 466.85 208.826 475.674 213.104C489.845 219.789 522.199 218.452 550.809 209.895C563.376 205.885 579.151 201.339 586.103 199.2C617.387 190.377 622.2 181.285 651.344 74.3324L658.564 48.1289H696.532C733.164 48.1289 734.501 48.3962 737.442 54.2787C739.313 57.4873 745.196 78.3431 751.078 100.269C756.693 122.461 762.843 144.119 764.447 148.397C766.052 152.943 768.726 161.499 770.062 167.649C771.934 175.136 776.747 182.89 784.501 190.644C794.662 200.804 800.544 203.746 829.956 213.371C865.518 225.136 875.946 226.473 898.941 221.66C916.053 217.917 923.54 214.174 935.84 203.211C940.92 198.665 953.487 187.435 963.648 178.344C974.076 169.253 987.712 156.686 994.129 150.536C1000.81 144.119 1007.5 139.039 1009.37 139.039C1011.24 139.039 1018.19 143.317 1024.88 148.397C1031.56 153.478 1037.98 157.756 1039.05 157.756C1041.46 157.756 1077.55 185.296 1077.55 187.168C1077.55 187.97 1072.74 202.676 1066.86 220.056C1060.97 237.436 1055.63 256.153 1054.56 261.5C1053.49 266.848 1051.88 272.73 1050.81 274.067C1048.94 276.741 1044.4 295.458 1041.99 311.234C1038.51 333.159 1057.23 365.512 1093.06 400.005C1105.36 411.502 1127.82 416.582 1150.82 412.304C1159.64 410.7 1180.5 407.491 1196.54 405.085C1212.85 402.678 1231.03 399.737 1237.18 398.133C1253.49 394.657 1254.03 394.657 1258.3 405.887C1262.31 415.78 1267.66 427.278 1279.43 453.214C1289.32 474.872 1289.59 477.278 1282.64 482.091C1279.16 484.23 1272.74 489.578 1268.46 493.856C1264.19 497.867 1251.62 508.562 1240.66 517.386C1229.69 526.209 1212.05 541.985 1201.62 552.413C1183.97 570.06 1182.37 572.734 1179.69 587.44C1174.88 614.713 1183.17 662.307 1195.47 678.885C1203.22 689.313 1215.52 698.939 1224.61 701.88C1228.36 702.949 1241.19 708.564 1253.49 714.447C1265.79 720.329 1281.3 727.281 1288.25 729.688C1295.2 732.094 1305.9 736.907 1312.31 740.383L1323.81 746.265L1322.21 764.18C1321.14 774.073 1318.73 788.779 1316.59 797.068Z" fill="black"/>
<path d="M1312.32 740.383C1305.9 736.907 1295.2 732.094 1288.25 729.688C1281.3 727.281 1265.79 720.329 1253.49 714.447C1241.19 708.564 1228.36 702.949 1224.61 701.88C1215.52 698.939 1203.22 689.313 1195.47 678.885C1183.17 662.307 1174.88 614.713 1179.69 587.44C1182.37 572.734 1183.97 570.06 1201.62 552.413C1212.05 541.985 1229.69 526.209 1240.66 517.386C1251.62 508.562 1264.19 497.867 1268.46 493.856C1272.74 489.578 1279.16 484.23 1282.64 482.091C1289.59 477.278 1289.32 474.872 1279.43 453.214C1267.66 427.278 1262.31 415.78 1258.3 405.887C1254.03 394.657 1253.49 394.657 1237.18 398.133C1231.03 399.737 1212.85 402.679 1196.54 405.085C1180.5 407.491 1159.64 410.7 1150.82 412.304C1127.82 416.582 1105.36 411.502 1093.06 400.005C1057.23 365.512 1038.52 333.159 1041.99 311.234C1044.4 295.458 1048.94 276.741 1050.81 274.067C1051.88 272.73 1053.49 266.848 1054.56 261.5C1055.63 256.153 1060.98 237.436 1066.86 220.056C1072.74 202.676 1077.55 187.97 1077.55 187.168C1077.55 185.296 1041.46 157.756 1039.05 157.756C1037.98 157.756 1031.56 153.478 1024.88 148.397C1018.19 143.317 1011.24 139.039 1009.37 139.039C1007.5 139.039 1000.81 144.119 994.13 150.537C987.712 156.686 974.076 169.253 963.648 178.344C953.487 187.435 940.92 198.665 935.84 203.211C923.54 214.174 916.054 217.917 898.941 221.66C875.946 226.473 865.518 225.136 829.956 213.371C800.544 203.746 794.662 200.805 784.501 190.644C776.747 182.89 771.934 175.136 770.063 167.649C768.726 161.499 766.052 152.943 764.448 148.397C762.843 144.119 756.694 122.461 751.079 100.269C745.196 78.3432 739.314 57.4873 737.442 54.2787C734.501 48.3963 733.164 48.1289 696.532 48.1289H658.564L651.345 74.3324C622.2 181.286 617.387 190.377 586.103 199.2C579.151 201.339 563.376 205.885 550.809 209.896C522.199 218.452 489.846 219.789 475.674 213.104C466.851 208.826 445.46 191.179 417.117 164.975C410.433 158.825 398.133 148.13 389.844 141.178L374.871 128.611L363.106 135.296C356.689 138.772 343.32 147.595 332.892 154.547C310.432 169.788 310.699 169.253 327.812 221.928C352.143 296.528 350.806 316.849 318.186 353.213C287.169 387.705 269.522 403.748 258.025 406.689C247.329 409.63 210.965 408.026 191.179 403.748C169.788 398.935 117.114 389.844 116.312 390.914C116.044 391.448 111.231 401.342 105.884 413.106C100.536 424.871 93.5842 439.845 90.1082 446.529L84.2258 458.562L96.5254 469.257C103.21 475.139 118.986 488.508 131.285 498.669C167.917 529.151 186.633 549.472 190.109 562.039C194.388 578.884 190.377 623.002 180.216 666.051C175.403 686.906 166.045 698.404 147.061 706.693C140.376 709.634 132.087 714.18 128.611 716.853C125.135 719.795 120.322 721.934 118.183 721.934C115.777 721.934 109.092 724.073 103.21 727.014C97.0602 729.688 87.4344 733.966 81.552 736.64C75.6695 739.046 66.0438 743.324 60.1613 745.998C54.2789 748.672 47.327 751.346 44.3858 752.415C40.9098 753.752 39.8403 755.624 41.1772 760.169C41.9793 763.378 44.6531 779.421 47.0596 795.464C49.1986 811.774 51.8725 825.678 52.942 826.748C55.3485 829.154 95.4559 835.571 140.109 840.652C158.826 843.058 175.671 845.732 177.542 847.069C179.147 848.406 183.692 850.277 187.703 851.347C197.863 853.753 220.858 877.55 224.602 889.583C226.473 895.198 230.752 904.556 234.228 910.706C237.704 916.588 240.645 923.273 240.645 925.412C240.645 927.551 242.784 932.899 245.19 937.177C252.142 949.744 251.34 979.691 243.853 993.327C231.019 1015.79 225.404 1024.88 204.013 1056.16C191.714 1073.54 181.553 1089.05 181.286 1090.39C180.484 1092.53 185.029 1097.87 218.719 1135.57L233.693 1152.15L240.912 1146.8C244.923 1144.13 248.934 1141.72 250.271 1141.72C251.875 1141.72 259.896 1138.25 298.132 1120.07C304.014 1117.39 313.106 1113.38 318.186 1111.24C323.266 1108.84 329.416 1105.9 331.555 1104.56C333.694 1103.22 337.705 1101.35 340.111 1100.55C342.518 1099.75 356.154 1083.97 370.058 1065.25L395.727 1031.3L368.989 1005.09C354.282 990.653 339.576 974.878 336.1 970.065C332.892 965.252 324.603 954.022 317.918 945.198C311.234 936.375 304.014 925.947 301.875 922.203C287.169 894.396 276.741 873.005 270.057 856.962C262.57 839.047 259.896 830.491 253.212 800.812C251.34 793.592 248.934 785.838 247.597 783.966C244.121 778.351 237.436 695.73 239.04 676.479C239.843 666.853 241.18 650.008 242.249 639.045C244.388 612.307 258.025 552.948 265.779 536.103C269.255 528.883 272.998 519.792 274.068 516.049C277.009 506.958 288.774 482.893 298.934 465.781C303.747 458.027 307.49 451.075 307.49 450.273C307.49 447.331 346.528 398.668 361.502 383.16C386.101 357.223 435.032 318.72 457.225 307.49C463.909 304.282 471.129 300.004 473.268 298.132C475.407 296.26 483.428 292.784 490.648 290.11C498.134 287.437 505.354 284.228 506.691 283.158C508.295 282.089 518.723 278.078 529.953 274.335C590.916 254.014 617.655 254.816 635.302 277.811C640.115 284.495 640.382 291.982 641.719 479.952L643.056 675.142L663.11 714.714C674.072 736.372 683.698 754.02 684.5 754.02C685.302 754.02 694.928 736.372 705.891 714.714L725.945 675.142L727.281 481.289C728.618 297.062 728.886 287.169 733.699 279.95C736.373 275.939 742.522 270.057 747.068 266.581C758.298 258.559 788.512 258.827 811.507 267.383C820.331 270.591 834.235 275.404 842.523 278.078C860.438 283.961 862.042 284.763 897.07 303.48C939.049 326.207 974.611 355.619 1023.81 408.561C1044.93 431.289 1090.12 511.503 1096.27 537.439C1098.14 544.659 1100.55 551.343 1101.62 552.146C1102.95 552.948 1104.83 559.365 1105.9 566.317C1106.7 573.269 1108.84 580.221 1110.17 582.092C1111.51 583.964 1113.65 595.194 1114.99 607.494C1116.32 619.793 1118.73 641.184 1120.33 655.088C1123.81 682.628 1122.47 727.549 1117.39 759.367C1111.51 795.731 1096.54 847.336 1085.57 869.262C1082.63 874.877 1080.23 881.294 1080.23 883.165C1080.23 885.305 1075.95 893.326 1070.87 900.813C1065.79 908.299 1061.51 915.251 1061.51 916.588C1061.51 917.925 1058.03 923.808 1054.02 929.423C1049.75 935.038 1041.72 946.535 1036.11 954.557C1024.08 971.937 1017.93 978.889 995.199 1001.88L978.354 1018.73L1015.79 1060.98C1036.64 1084.5 1056.96 1104.83 1062.04 1107.23C1066.86 1109.64 1086.38 1119.26 1105.09 1128.36C1125.41 1138.52 1140.12 1144.13 1141.72 1142.79C1142.79 1141.46 1155.9 1125.95 1170.6 1108.57L1197.34 1076.75L1189.05 1063.11C1184.51 1055.63 1178.36 1047.07 1175.68 1044.13C1173.01 1041.19 1168.73 1035.31 1166.59 1030.76C1164.19 1026.48 1159.1 1017.93 1155.36 1012.04C1151.35 1006.16 1144.13 995.466 1139.32 988.247C1127.29 970.332 1123.54 951.348 1128.09 930.225C1129.96 921.134 1132.37 911.775 1133.7 909.369C1134.77 906.963 1137.98 900.011 1140.66 893.593C1144.93 883.433 1164.99 860.705 1174.88 855.09C1176.75 854.021 1186.11 851.882 1195.47 850.545C1204.83 849.208 1222.74 846.267 1235.31 844.128C1247.88 841.989 1268.2 839.315 1280.76 838.245C1309.11 835.839 1312.85 833.967 1312.85 821.935C1312.85 816.587 1314.45 805.357 1316.59 797.068C1318.73 788.779 1321.14 774.073 1322.21 764.18L1323.81 746.265L1312.32 740.383Z" fill="#006699"/>
</g>
<defs>
<clipPath id="clip0_8_45">
<rect width="1369" height="1369" fill="white" transform="matrix(0 1 -1 0 1369 0)"/>
</clipPath>
</defs>
</svg>
